<mxfile host="app.diagrams.net" modified="2023-05-07T01:46:05.375Z" agent="Mozilla/5.0 (Windows NT 10.0; Win64; x64) AppleWebKit/537.36 (KHTML, like Gecko) Chrome/112.0.0.0 Safari/537.36 Edg/112.0.1722.68" etag="vW7KJSbXE2EPJbSbF4He" version="21.2.9" type="device">
  <diagram name="PÃ¡gina-1" id="SlOraRPIaO_HmO8gaNCG">
    <mxGraphModel dx="3022" dy="3132" grid="1" gridSize="10" guides="1" tooltips="1" connect="1" arrows="1" fold="1" page="1" pageScale="1" pageWidth="1169" pageHeight="1654" math="0" shadow="0">
      <root>
        <mxCell id="0" />
        <mxCell id="1" parent="0" />
        <mxCell id="T3J9ZxhJxqVu2YmQ8V2y-30" value="&lt;font style=&quot;font-size: 8px;&quot;&gt;int available&lt;/font&gt;" style="whiteSpace=wrap;html=1;align=left;" vertex="1" parent="1">
          <mxGeometry x="440" y="660" width="85" height="20" as="geometry" />
        </mxCell>
        <mxCell id="adUnemuhAB_1TELeL05T-33" value="" style="shape=datastore;whiteSpace=wrap;html=1;" parent="1" vertex="1">
          <mxGeometry x="490" y="690" width="230" height="500" as="geometry" />
        </mxCell>
        <mxCell id="T3J9ZxhJxqVu2YmQ8V2y-21" value="Sensor" style="swimlane;fontStyle=0;childLayout=stackLayout;horizontal=1;startSize=26;fillColor=none;horizontalStack=0;resizeParent=1;resizeParentMax=0;resizeLast=0;collapsible=1;marginBottom=0;whiteSpace=wrap;html=1;" vertex="1" parent="1">
          <mxGeometry x="495" y="1020" width="100" height="60" as="geometry" />
        </mxCell>
        <mxCell id="T3J9ZxhJxqVu2YmQ8V2y-23" value="char id[MAX_LEN]" style="text;strokeColor=none;fillColor=none;align=left;verticalAlign=top;spacingLeft=4;spacingRight=4;overflow=hidden;rotatable=0;points=[[0,0.5],[1,0.5]];portConstraint=eastwest;whiteSpace=wrap;html=1;fontSize=8;" vertex="1" parent="T3J9ZxhJxqVu2YmQ8V2y-21">
          <mxGeometry y="26" width="100" height="14" as="geometry" />
        </mxCell>
        <mxCell id="T3J9ZxhJxqVu2YmQ8V2y-24" value="char key[MAX_LEN]" style="text;strokeColor=none;fillColor=none;align=left;verticalAlign=top;spacingLeft=4;spacingRight=4;overflow=hidden;rotatable=0;points=[[0,0.5],[1,0.5]];portConstraint=eastwest;whiteSpace=wrap;html=1;fontSize=8;" vertex="1" parent="T3J9ZxhJxqVu2YmQ8V2y-21">
          <mxGeometry y="40" width="100" height="20" as="geometry" />
        </mxCell>
        <mxCell id="T3J9ZxhJxqVu2YmQ8V2y-27" value="" style="rounded=0;whiteSpace=wrap;html=1;strokeColor=none;" vertex="1" parent="1">
          <mxGeometry x="583" y="1070" width="97" height="84" as="geometry" />
        </mxCell>
        <mxCell id="adUnemuhAB_1TELeL05T-1" value="" style="rounded=0;whiteSpace=wrap;html=1;fillColor=#bac8d3;strokeColor=#000000;" parent="1" vertex="1">
          <mxGeometry x="20" y="310" width="400" height="340" as="geometry" />
        </mxCell>
        <mxCell id="T3J9ZxhJxqVu2YmQ8V2y-5" value="cond" style="ellipse;whiteSpace=wrap;html=1;aspect=fixed;fillColor=#fad9d5;strokeColor=#ae4132;" vertex="1" parent="1">
          <mxGeometry x="245" y="610" width="30" height="30" as="geometry" />
        </mxCell>
        <mxCell id="adUnemuhAB_1TELeL05T-194" value="" style="shape=flexArrow;endArrow=classic;html=1;rounded=0;exitX=0.476;exitY=0.999;exitDx=0;exitDy=0;fillColor=#E6D0DE;entryX=0.916;entryY=0.119;entryDx=0;entryDy=0;entryPerimeter=0;exitPerimeter=0;" parent="1" target="adUnemuhAB_1TELeL05T-38" edge="1">
          <mxGeometry width="50" height="50" relative="1" as="geometry">
            <mxPoint x="250" y="650" as="sourcePoint" />
            <mxPoint x="250" y="720" as="targetPoint" />
            <Array as="points">
              <mxPoint x="250" y="680" />
            </Array>
          </mxGeometry>
        </mxCell>
        <mxCell id="adUnemuhAB_1TELeL05T-193" value="" style="shape=flexArrow;endArrow=classic;html=1;rounded=0;exitX=0.476;exitY=0.999;exitDx=0;exitDy=0;fillColor=#E6D0DE;entryX=0.833;entryY=0.061;entryDx=0;entryDy=0;entryPerimeter=0;exitPerimeter=0;" parent="1" target="adUnemuhAB_1TELeL05T-38" edge="1">
          <mxGeometry width="50" height="50" relative="1" as="geometry">
            <mxPoint x="230" y="650" as="sourcePoint" />
            <mxPoint x="230" y="720" as="targetPoint" />
            <Array as="points">
              <mxPoint x="230" y="680" />
            </Array>
          </mxGeometry>
        </mxCell>
        <mxCell id="T3J9ZxhJxqVu2YmQ8V2y-9" style="edgeStyle=orthogonalEdgeStyle;rounded=0;orthogonalLoop=1;jettySize=auto;html=1;exitX=1;exitY=0.5;exitDx=0;exitDy=0;exitPerimeter=0;" edge="1" parent="1" source="adUnemuhAB_1TELeL05T-126" target="T3J9ZxhJxqVu2YmQ8V2y-6">
          <mxGeometry relative="1" as="geometry" />
        </mxCell>
        <mxCell id="T3J9ZxhJxqVu2YmQ8V2y-11" style="edgeStyle=orthogonalEdgeStyle;rounded=0;orthogonalLoop=1;jettySize=auto;html=1;exitX=1;exitY=1;exitDx=0;exitDy=0;exitPerimeter=0;" edge="1" parent="1" source="adUnemuhAB_1TELeL05T-126" target="T3J9ZxhJxqVu2YmQ8V2y-7">
          <mxGeometry relative="1" as="geometry">
            <Array as="points">
              <mxPoint x="290" y="900" />
              <mxPoint x="380" y="900" />
            </Array>
          </mxGeometry>
        </mxCell>
        <mxCell id="adUnemuhAB_1TELeL05T-126" value="" style="verticalLabelPosition=bottom;verticalAlign=top;html=1;shape=mxgraph.basic.patternFillRect;fillStyle=hor;step=5;fillStrokeWidth=0.2;fillStrokeColor=#dddddd;" parent="1" vertex="1">
          <mxGeometry x="50" y="740" width="240" height="170" as="geometry" />
        </mxCell>
        <mxCell id="adUnemuhAB_1TELeL05T-125" value="" style="verticalLabelPosition=bottom;verticalAlign=top;html=1;shape=mxgraph.basic.patternFillRect;fillStyle=hor;step=5;fillStrokeWidth=0.2;fillStrokeColor=#dddddd;" parent="1" vertex="1">
          <mxGeometry x="40" y="730" width="240" height="170" as="geometry" />
        </mxCell>
        <mxCell id="adUnemuhAB_1TELeL05T-51" style="edgeStyle=orthogonalEdgeStyle;rounded=0;orthogonalLoop=1;jettySize=auto;html=1;exitX=0.25;exitY=0;exitDx=0;exitDy=0;entryX=0;entryY=0.75;entryDx=0;entryDy=0;" parent="1" source="adUnemuhAB_1TELeL05T-40" target="adUnemuhAB_1TELeL05T-10" edge="1">
          <mxGeometry relative="1" as="geometry" />
        </mxCell>
        <mxCell id="adUnemuhAB_1TELeL05T-52" style="edgeStyle=orthogonalEdgeStyle;rounded=0;orthogonalLoop=1;jettySize=auto;html=1;exitX=0.5;exitY=0;exitDx=0;exitDy=0;entryX=0;entryY=1;entryDx=0;entryDy=0;" parent="1" source="adUnemuhAB_1TELeL05T-40" target="adUnemuhAB_1TELeL05T-10" edge="1">
          <mxGeometry relative="1" as="geometry">
            <Array as="points">
              <mxPoint x="-20" y="-20" />
              <mxPoint x="48" y="-20" />
              <mxPoint x="48" y="60" />
            </Array>
          </mxGeometry>
        </mxCell>
        <mxCell id="adUnemuhAB_1TELeL05T-48" value="" style="rounded=0;whiteSpace=wrap;html=1;fillColor=#b1ddf0;strokeColor=#000000;" parent="1" vertex="1">
          <mxGeometry x="100" y="-20" width="280" height="200" as="geometry" />
        </mxCell>
        <mxCell id="adUnemuhAB_1TELeL05T-47" value="" style="rounded=0;whiteSpace=wrap;html=1;fillColor=#b1ddf0;strokeColor=#000000;" parent="1" vertex="1">
          <mxGeometry x="90" y="-30" width="280" height="200" as="geometry" />
        </mxCell>
        <mxCell id="adUnemuhAB_1TELeL05T-177" style="edgeStyle=orthogonalEdgeStyle;rounded=0;orthogonalLoop=1;jettySize=auto;html=1;exitX=1;exitY=0.75;exitDx=0;exitDy=0;entryX=0;entryY=0.5;entryDx=0;entryDy=0;" parent="1" source="adUnemuhAB_1TELeL05T-1" target="adUnemuhAB_1TELeL05T-172" edge="1">
          <mxGeometry relative="1" as="geometry">
            <Array as="points">
              <mxPoint x="420" y="610" />
            </Array>
          </mxGeometry>
        </mxCell>
        <mxCell id="adUnemuhAB_1TELeL05T-2" value="" style="rounded=0;whiteSpace=wrap;html=1;fillColor=#b1ddf0;strokeColor=#000000;" parent="1" vertex="1">
          <mxGeometry x="80" y="-40" width="280" height="200" as="geometry" />
        </mxCell>
        <mxCell id="adUnemuhAB_1TELeL05T-3" value="" style="rounded=0;whiteSpace=wrap;html=1;fillColor=#b0e3e6;strokeColor=#000000;" parent="1" vertex="1">
          <mxGeometry x="480" y="-40" width="280" height="200" as="geometry" />
        </mxCell>
        <mxCell id="adUnemuhAB_1TELeL05T-5" value="SENSOR_PIPE" style="text;html=1;strokeColor=none;fillColor=none;align=center;verticalAlign=middle;whiteSpace=wrap;rounded=0;fontStyle=1" parent="1" vertex="1">
          <mxGeometry x="500" y="450" width="60" height="20" as="geometry" />
        </mxCell>
        <mxCell id="adUnemuhAB_1TELeL05T-7" value="CONSOLE_PIPE" style="text;html=1;strokeColor=none;fillColor=none;align=center;verticalAlign=middle;whiteSpace=wrap;rounded=0;rotation=-90;fontStyle=1" parent="1" vertex="1">
          <mxGeometry x="170" y="220" width="60" height="30" as="geometry" />
        </mxCell>
        <mxCell id="adUnemuhAB_1TELeL05T-9" value="" style="rounded=0;whiteSpace=wrap;html=1;fillColor=#fff2cc;strokeColor=#d6b656;" parent="1" vertex="1">
          <mxGeometry x="225" y="-20" width="110" height="80" as="geometry" />
        </mxCell>
        <mxCell id="adUnemuhAB_1TELeL05T-10" value="" style="rounded=0;whiteSpace=wrap;html=1;fillColor=#fff2cc;strokeColor=#d6b656;" parent="1" vertex="1">
          <mxGeometry x="105" y="-20" width="110" height="80" as="geometry" />
        </mxCell>
        <mxCell id="adUnemuhAB_1TELeL05T-46" style="edgeStyle=orthogonalEdgeStyle;rounded=0;orthogonalLoop=1;jettySize=auto;html=1;exitX=0.5;exitY=1;exitDx=0;exitDy=0;" parent="1" source="adUnemuhAB_1TELeL05T-11" edge="1">
          <mxGeometry relative="1" as="geometry">
            <mxPoint x="220" y="160" as="targetPoint" />
          </mxGeometry>
        </mxCell>
        <mxCell id="adUnemuhAB_1TELeL05T-11" value="writer_function" style="text;html=1;strokeColor=none;fillColor=none;align=center;verticalAlign=middle;whiteSpace=wrap;rounded=0;" parent="1" vertex="1">
          <mxGeometry x="240" width="80" height="30" as="geometry" />
        </mxCell>
        <mxCell id="adUnemuhAB_1TELeL05T-12" value="reader_function" style="text;html=1;strokeColor=none;fillColor=none;align=center;verticalAlign=middle;whiteSpace=wrap;rounded=0;" parent="1" vertex="1">
          <mxGeometry x="120" width="80" height="30" as="geometry" />
        </mxCell>
        <mxCell id="adUnemuhAB_1TELeL05T-13" value="Sensor main process" style="text;html=1;strokeColor=none;fillColor=none;align=center;verticalAlign=middle;whiteSpace=wrap;rounded=0;fontStyle=1" parent="1" vertex="1">
          <mxGeometry x="480" y="-70" width="130" height="30" as="geometry" />
        </mxCell>
        <mxCell id="adUnemuhAB_1TELeL05T-15" value="User console main process" style="text;html=1;strokeColor=none;fillColor=none;align=center;verticalAlign=middle;whiteSpace=wrap;rounded=0;fontStyle=1" parent="1" vertex="1">
          <mxGeometry x="80" y="-70" width="170" height="30" as="geometry" />
        </mxCell>
        <mxCell id="adUnemuhAB_1TELeL05T-22" value="" style="shape=flexArrow;endArrow=classic;html=1;rounded=0;exitX=0.5;exitY=1;exitDx=0;exitDy=0;entryX=0.5;entryY=0;entryDx=0;entryDy=0;fillColor=#9AC7BF;" parent="1" source="adUnemuhAB_1TELeL05T-2" target="adUnemuhAB_1TELeL05T-1" edge="1">
          <mxGeometry width="50" height="50" relative="1" as="geometry">
            <mxPoint x="240" y="170" as="sourcePoint" />
            <mxPoint x="240" y="280" as="targetPoint" />
            <Array as="points">
              <mxPoint x="220" y="230" />
            </Array>
          </mxGeometry>
        </mxCell>
        <mxCell id="adUnemuhAB_1TELeL05T-24" value="" style="shape=flexArrow;endArrow=classic;html=1;rounded=0;exitX=0.5;exitY=1;exitDx=0;exitDy=0;entryX=1;entryY=0.5;entryDx=0;entryDy=0;fillColor=#9AC7BF;" parent="1" source="adUnemuhAB_1TELeL05T-3" target="adUnemuhAB_1TELeL05T-1" edge="1">
          <mxGeometry width="50" height="50" relative="1" as="geometry">
            <mxPoint x="550" y="330" as="sourcePoint" />
            <mxPoint x="600" y="280" as="targetPoint" />
            <Array as="points">
              <mxPoint x="620" y="480" />
              <mxPoint x="470" y="480" />
            </Array>
          </mxGeometry>
        </mxCell>
        <mxCell id="adUnemuhAB_1TELeL05T-65" style="edgeStyle=orthogonalEdgeStyle;rounded=0;orthogonalLoop=1;jettySize=auto;html=1;exitX=0;exitY=0.7;exitDx=0;exitDy=0;entryX=1;entryY=0.5;entryDx=0;entryDy=0;entryPerimeter=0;" parent="1" source="adUnemuhAB_1TELeL05T-33" target="adUnemuhAB_1TELeL05T-54" edge="1">
          <mxGeometry relative="1" as="geometry">
            <Array as="points">
              <mxPoint x="490" y="960" />
              <mxPoint x="460" y="960" />
              <mxPoint x="460" y="1025" />
            </Array>
          </mxGeometry>
        </mxCell>
        <mxCell id="adUnemuhAB_1TELeL05T-35" value="Home IOT main process" style="text;html=1;strokeColor=none;fillColor=none;align=center;verticalAlign=middle;whiteSpace=wrap;rounded=0;fontStyle=1" parent="1" vertex="1">
          <mxGeometry x="20" y="280" width="150" height="30" as="geometry" />
        </mxCell>
        <mxCell id="adUnemuhAB_1TELeL05T-60" style="edgeStyle=orthogonalEdgeStyle;rounded=0;orthogonalLoop=1;jettySize=auto;html=1;exitX=0;exitY=0.25;exitDx=0;exitDy=0;exitPerimeter=0;entryX=0.5;entryY=1;entryDx=0;entryDy=0;" parent="1" source="adUnemuhAB_1TELeL05T-38" target="adUnemuhAB_1TELeL05T-40" edge="1">
          <mxGeometry relative="1" as="geometry" />
        </mxCell>
        <mxCell id="omIfr3ZJ7B2NHzr-tZCr-2" style="edgeStyle=orthogonalEdgeStyle;rounded=0;orthogonalLoop=1;jettySize=auto;html=1;exitX=1;exitY=0;exitDx=0;exitDy=0;exitPerimeter=0;entryX=0.833;entryY=1;entryDx=0;entryDy=0;entryPerimeter=0;" parent="1" source="adUnemuhAB_1TELeL05T-38" edge="1">
          <mxGeometry relative="1" as="geometry">
            <mxPoint x="269.9899999999998" y="640" as="targetPoint" />
          </mxGeometry>
        </mxCell>
        <mxCell id="adUnemuhAB_1TELeL05T-38" value="" style="verticalLabelPosition=bottom;verticalAlign=top;html=1;shape=mxgraph.basic.patternFillRect;fillStyle=hor;step=5;fillStrokeWidth=0.2;fillStrokeColor=#dddddd;" parent="1" vertex="1">
          <mxGeometry x="30" y="720" width="240" height="170" as="geometry" />
        </mxCell>
        <mxCell id="adUnemuhAB_1TELeL05T-50" style="edgeStyle=orthogonalEdgeStyle;rounded=0;orthogonalLoop=1;jettySize=auto;html=1;exitX=0;exitY=0;exitDx=0;exitDy=0;" parent="1" source="adUnemuhAB_1TELeL05T-40" target="adUnemuhAB_1TELeL05T-10" edge="1">
          <mxGeometry relative="1" as="geometry" />
        </mxCell>
        <mxCell id="adUnemuhAB_1TELeL05T-40" value="Message Queue" style="swimlane;childLayout=stackLayout;resizeParent=1;resizeParentMax=0;startSize=20;horizontal=0;horizontalStack=1;rotation=0;" parent="1" vertex="1">
          <mxGeometry x="-30" width="20" height="480" as="geometry">
            <mxRectangle x="-30" width="40" height="120" as="alternateBounds" />
          </mxGeometry>
        </mxCell>
        <mxCell id="adUnemuhAB_1TELeL05T-53" value="Worker process" style="text;html=1;strokeColor=none;fillColor=none;align=center;verticalAlign=middle;whiteSpace=wrap;rounded=0;fontStyle=1" parent="1" vertex="1">
          <mxGeometry x="20" y="700" width="110" height="20" as="geometry" />
        </mxCell>
        <mxCell id="adUnemuhAB_1TELeL05T-61" style="edgeStyle=orthogonalEdgeStyle;rounded=0;orthogonalLoop=1;jettySize=auto;html=1;exitX=0;exitY=0.25;exitDx=0;exitDy=0;exitPerimeter=0;entryX=0.5;entryY=1;entryDx=0;entryDy=0;" parent="1" source="adUnemuhAB_1TELeL05T-54" target="adUnemuhAB_1TELeL05T-40" edge="1">
          <mxGeometry relative="1" as="geometry" />
        </mxCell>
        <mxCell id="T3J9ZxhJxqVu2YmQ8V2y-8" style="edgeStyle=orthogonalEdgeStyle;rounded=0;orthogonalLoop=1;jettySize=auto;html=1;exitX=1;exitY=0.25;exitDx=0;exitDy=0;exitPerimeter=0;entryX=0;entryY=0.5;entryDx=0;entryDy=0;" edge="1" parent="1" source="adUnemuhAB_1TELeL05T-54" target="T3J9ZxhJxqVu2YmQ8V2y-6">
          <mxGeometry relative="1" as="geometry" />
        </mxCell>
        <mxCell id="adUnemuhAB_1TELeL05T-54" value="" style="verticalLabelPosition=bottom;verticalAlign=top;html=1;shape=mxgraph.basic.patternFillRect;fillStyle=diagGrid;step=5;fillStrokeWidth=0.2;fillStrokeColor=#dddddd;" parent="1" vertex="1">
          <mxGeometry x="30" y="940" width="240" height="170" as="geometry" />
        </mxCell>
        <mxCell id="adUnemuhAB_1TELeL05T-56" value="Watcher process" style="text;html=1;strokeColor=none;fillColor=none;align=center;verticalAlign=middle;whiteSpace=wrap;rounded=0;fontStyle=1" parent="1" vertex="1">
          <mxGeometry x="30" y="920" width="110" height="20" as="geometry" />
        </mxCell>
        <mxCell id="adUnemuhAB_1TELeL05T-57" value="" style="endArrow=none;dashed=1;html=1;rounded=0;exitX=0;exitY=0.5;exitDx=0;exitDy=0;exitPerimeter=0;entryX=0;entryY=0.75;entryDx=0;entryDy=0;" parent="1" source="adUnemuhAB_1TELeL05T-54" target="adUnemuhAB_1TELeL05T-1" edge="1">
          <mxGeometry width="50" height="50" relative="1" as="geometry">
            <mxPoint x="-60" y="940" as="sourcePoint" />
            <mxPoint x="-60" y="640" as="targetPoint" />
            <Array as="points">
              <mxPoint y="1025" />
              <mxPoint y="565" />
            </Array>
          </mxGeometry>
        </mxCell>
        <mxCell id="adUnemuhAB_1TELeL05T-59" value="" style="endArrow=none;dashed=1;html=1;dashPattern=1 3;strokeWidth=2;rounded=0;exitX=0;exitY=0.5;exitDx=0;exitDy=0;exitPerimeter=0;" parent="1" source="adUnemuhAB_1TELeL05T-38" edge="1">
          <mxGeometry width="50" height="50" relative="1" as="geometry">
            <mxPoint x="10" y="810" as="sourcePoint" />
            <mxPoint x="20" y="560" as="targetPoint" />
            <Array as="points">
              <mxPoint x="10" y="805" />
              <mxPoint x="10" y="560" />
            </Array>
          </mxGeometry>
        </mxCell>
        <mxCell id="adUnemuhAB_1TELeL05T-64" value="" style="endArrow=classic;startArrow=classic;html=1;rounded=0;exitX=1;exitY=0.5;exitDx=0;exitDy=0;exitPerimeter=0;entryX=0;entryY=0.3;entryDx=0;entryDy=0;" parent="1" source="adUnemuhAB_1TELeL05T-38" target="adUnemuhAB_1TELeL05T-33" edge="1">
          <mxGeometry width="50" height="50" relative="1" as="geometry">
            <mxPoint x="360" y="840" as="sourcePoint" />
            <mxPoint x="410" y="790" as="targetPoint" />
            <Array as="points">
              <mxPoint x="460" y="805" />
              <mxPoint x="460" y="840" />
            </Array>
          </mxGeometry>
        </mxCell>
        <mxCell id="adUnemuhAB_1TELeL05T-66" value="writes and reads" style="text;html=1;strokeColor=none;fillColor=none;align=center;verticalAlign=middle;whiteSpace=wrap;rounded=0;" parent="1" vertex="1">
          <mxGeometry x="320" y="780" width="105" height="30" as="geometry" />
        </mxCell>
        <mxCell id="adUnemuhAB_1TELeL05T-67" value="reads" style="text;html=1;strokeColor=none;fillColor=none;align=center;verticalAlign=middle;whiteSpace=wrap;rounded=0;" parent="1" vertex="1">
          <mxGeometry x="320" y="1000" width="105" height="30" as="geometry" />
        </mxCell>
        <mxCell id="adUnemuhAB_1TELeL05T-68" value="Shared memory" style="text;html=1;strokeColor=none;fillColor=none;align=center;verticalAlign=middle;whiteSpace=wrap;rounded=0;fontStyle=1" parent="1" vertex="1">
          <mxGeometry x="550" y="710" width="110" height="20" as="geometry" />
        </mxCell>
        <mxCell id="adUnemuhAB_1TELeL05T-101" value="" style="shape=table;startSize=0;container=1;collapsible=0;childLayout=tableLayout;fontSize=16;" parent="1" vertex="1">
          <mxGeometry x="50" y="462" width="80" height="13" as="geometry" />
        </mxCell>
        <mxCell id="adUnemuhAB_1TELeL05T-102" value="" style="shape=tableRow;horizontal=0;startSize=0;swimlaneHead=0;swimlaneBody=0;strokeColor=inherit;top=0;left=0;bottom=0;right=0;collapsible=0;dropTarget=0;fillColor=none;points=[[0,0.5],[1,0.5]];portConstraint=eastwest;fontSize=16;" parent="adUnemuhAB_1TELeL05T-101" vertex="1">
          <mxGeometry width="80" height="13" as="geometry" />
        </mxCell>
        <mxCell id="adUnemuhAB_1TELeL05T-103" value="" style="shape=partialRectangle;html=1;whiteSpace=wrap;connectable=0;strokeColor=inherit;overflow=hidden;fillColor=none;top=0;left=0;bottom=0;right=0;pointerEvents=1;fontSize=16;" parent="adUnemuhAB_1TELeL05T-102" vertex="1">
          <mxGeometry width="26" height="13" as="geometry">
            <mxRectangle width="26" height="13" as="alternateBounds" />
          </mxGeometry>
        </mxCell>
        <mxCell id="adUnemuhAB_1TELeL05T-104" value="" style="shape=partialRectangle;html=1;whiteSpace=wrap;connectable=0;strokeColor=inherit;overflow=hidden;fillColor=none;top=0;left=0;bottom=0;right=0;pointerEvents=1;fontSize=16;" parent="adUnemuhAB_1TELeL05T-102" vertex="1">
          <mxGeometry x="26" width="28" height="13" as="geometry">
            <mxRectangle width="28" height="13" as="alternateBounds" />
          </mxGeometry>
        </mxCell>
        <mxCell id="adUnemuhAB_1TELeL05T-105" value="" style="shape=partialRectangle;html=1;whiteSpace=wrap;connectable=0;strokeColor=inherit;overflow=hidden;fillColor=none;top=0;left=0;bottom=0;right=0;pointerEvents=1;fontSize=16;" parent="adUnemuhAB_1TELeL05T-102" vertex="1">
          <mxGeometry x="54" width="26" height="13" as="geometry">
            <mxRectangle width="26" height="13" as="alternateBounds" />
          </mxGeometry>
        </mxCell>
        <mxCell id="adUnemuhAB_1TELeL05T-115" value="" style="shape=table;startSize=0;container=1;collapsible=0;childLayout=tableLayout;fontSize=16;" parent="1" vertex="1">
          <mxGeometry x="130" y="462" width="80" height="13" as="geometry" />
        </mxCell>
        <mxCell id="adUnemuhAB_1TELeL05T-116" value="" style="shape=tableRow;horizontal=0;startSize=0;swimlaneHead=0;swimlaneBody=0;strokeColor=inherit;top=0;left=0;bottom=0;right=0;collapsible=0;dropTarget=0;fillColor=none;points=[[0,0.5],[1,0.5]];portConstraint=eastwest;fontSize=16;" parent="adUnemuhAB_1TELeL05T-115" vertex="1">
          <mxGeometry width="80" height="13" as="geometry" />
        </mxCell>
        <mxCell id="adUnemuhAB_1TELeL05T-117" value="" style="shape=partialRectangle;html=1;whiteSpace=wrap;connectable=0;strokeColor=inherit;overflow=hidden;fillColor=none;top=0;left=0;bottom=0;right=0;pointerEvents=1;fontSize=16;" parent="adUnemuhAB_1TELeL05T-116" vertex="1">
          <mxGeometry width="26" height="13" as="geometry">
            <mxRectangle width="26" height="13" as="alternateBounds" />
          </mxGeometry>
        </mxCell>
        <mxCell id="adUnemuhAB_1TELeL05T-118" value="" style="shape=partialRectangle;html=1;whiteSpace=wrap;connectable=0;strokeColor=inherit;overflow=hidden;fillColor=none;top=0;left=0;bottom=0;right=0;pointerEvents=1;fontSize=16;" parent="adUnemuhAB_1TELeL05T-116" vertex="1">
          <mxGeometry x="26" width="28" height="13" as="geometry">
            <mxRectangle width="28" height="13" as="alternateBounds" />
          </mxGeometry>
        </mxCell>
        <mxCell id="adUnemuhAB_1TELeL05T-119" value="" style="shape=partialRectangle;html=1;whiteSpace=wrap;connectable=0;strokeColor=inherit;overflow=hidden;fillColor=none;top=0;left=0;bottom=0;right=0;pointerEvents=1;fontSize=16;" parent="adUnemuhAB_1TELeL05T-116" vertex="1">
          <mxGeometry x="54" width="26" height="13" as="geometry">
            <mxRectangle width="26" height="13" as="alternateBounds" />
          </mxGeometry>
        </mxCell>
        <mxCell id="adUnemuhAB_1TELeL05T-120" value="Internal queue" style="text;html=1;strokeColor=none;fillColor=none;align=center;verticalAlign=middle;whiteSpace=wrap;rounded=0;" parent="1" vertex="1">
          <mxGeometry x="130" y="440" width="85" height="20" as="geometry" />
        </mxCell>
        <mxCell id="adUnemuhAB_1TELeL05T-121" value="" style="rounded=0;whiteSpace=wrap;html=1;fillColor=#fff2cc;strokeColor=#d6b656;" parent="1" vertex="1">
          <mxGeometry x="165" y="320" width="110" height="80" as="geometry" />
        </mxCell>
        <mxCell id="adUnemuhAB_1TELeL05T-122" value="console_reader" style="text;html=1;strokeColor=none;fillColor=none;align=center;verticalAlign=middle;whiteSpace=wrap;rounded=0;" parent="1" vertex="1">
          <mxGeometry x="180" y="340" width="80" height="30" as="geometry" />
        </mxCell>
        <mxCell id="adUnemuhAB_1TELeL05T-123" value="" style="rounded=0;whiteSpace=wrap;html=1;fillColor=#fff2cc;strokeColor=#d6b656;" parent="1" vertex="1">
          <mxGeometry x="300" y="440" width="110" height="80" as="geometry" />
        </mxCell>
        <mxCell id="adUnemuhAB_1TELeL05T-124" value="sensor_reader" style="text;html=1;strokeColor=none;fillColor=none;align=center;verticalAlign=middle;whiteSpace=wrap;rounded=0;" parent="1" vertex="1">
          <mxGeometry x="315" y="460" width="80" height="30" as="geometry" />
        </mxCell>
        <mxCell id="adUnemuhAB_1TELeL05T-167" style="edgeStyle=orthogonalEdgeStyle;rounded=0;orthogonalLoop=1;jettySize=auto;html=1;exitX=0.25;exitY=0;exitDx=0;exitDy=0;entryX=0.5;entryY=1;entryDx=0;entryDy=0;" parent="1" source="adUnemuhAB_1TELeL05T-130" target="adUnemuhAB_1TELeL05T-153" edge="1">
          <mxGeometry relative="1" as="geometry" />
        </mxCell>
        <mxCell id="omIfr3ZJ7B2NHzr-tZCr-3" style="edgeStyle=orthogonalEdgeStyle;rounded=0;orthogonalLoop=1;jettySize=auto;html=1;exitX=1;exitY=0.75;exitDx=0;exitDy=0;entryX=0;entryY=0.5;entryDx=0;entryDy=0;" parent="1" source="adUnemuhAB_1TELeL05T-130" edge="1">
          <mxGeometry relative="1" as="geometry">
            <Array as="points">
              <mxPoint x="205" y="625" />
            </Array>
            <mxPoint x="244.99999999999977" y="625" as="targetPoint" />
          </mxGeometry>
        </mxCell>
        <mxCell id="adUnemuhAB_1TELeL05T-130" value="" style="rounded=0;whiteSpace=wrap;html=1;fillColor=#fff2cc;strokeColor=#d6b656;" parent="1" vertex="1">
          <mxGeometry x="95" y="560" width="110" height="80" as="geometry" />
        </mxCell>
        <mxCell id="adUnemuhAB_1TELeL05T-131" value="dispatcher" style="text;html=1;strokeColor=none;fillColor=none;align=center;verticalAlign=middle;whiteSpace=wrap;rounded=0;" parent="1" vertex="1">
          <mxGeometry x="110" y="580" width="80" height="30" as="geometry" />
        </mxCell>
        <mxCell id="adUnemuhAB_1TELeL05T-209" style="edgeStyle=orthogonalEdgeStyle;rounded=0;orthogonalLoop=1;jettySize=auto;html=1;exitX=1;exitY=0.5;exitDx=0;exitDy=0;" parent="1" edge="1">
          <mxGeometry relative="1" as="geometry">
            <mxPoint x="230" y="650" as="targetPoint" />
            <mxPoint x="190" y="625" as="sourcePoint" />
            <Array as="points">
              <mxPoint x="190" y="600" />
              <mxPoint x="230" y="600" />
            </Array>
          </mxGeometry>
        </mxCell>
        <mxCell id="adUnemuhAB_1TELeL05T-160" style="edgeStyle=orthogonalEdgeStyle;rounded=0;orthogonalLoop=1;jettySize=auto;html=1;exitX=0;exitY=0.25;exitDx=0;exitDy=0;entryX=0;entryY=0;entryDx=0;entryDy=0;" parent="1" target="adUnemuhAB_1TELeL05T-152" edge="1">
          <mxGeometry relative="1" as="geometry">
            <mxPoint x="300" y="495" as="sourcePoint" />
            <Array as="points">
              <mxPoint x="300" y="430" />
              <mxPoint x="56" y="430" />
            </Array>
          </mxGeometry>
        </mxCell>
        <mxCell id="adUnemuhAB_1TELeL05T-163" style="edgeStyle=orthogonalEdgeStyle;rounded=0;orthogonalLoop=1;jettySize=auto;html=1;exitX=0;exitY=0.25;exitDx=0;exitDy=0;entryX=0.504;entryY=-0.016;entryDx=0;entryDy=0;entryPerimeter=0;" parent="1" target="adUnemuhAB_1TELeL05T-102" edge="1">
          <mxGeometry relative="1" as="geometry">
            <mxPoint x="300" y="495" as="sourcePoint" />
            <Array as="points">
              <mxPoint x="215" y="495" />
              <mxPoint x="215" y="410" />
              <mxPoint x="90" y="410" />
            </Array>
          </mxGeometry>
        </mxCell>
        <mxCell id="adUnemuhAB_1TELeL05T-159" style="edgeStyle=orthogonalEdgeStyle;rounded=0;orthogonalLoop=1;jettySize=auto;html=1;exitX=0;exitY=1;exitDx=0;exitDy=0;entryX=0;entryY=0.5;entryDx=0;entryDy=0;" parent="1" target="adUnemuhAB_1TELeL05T-152" edge="1">
          <mxGeometry relative="1" as="geometry">
            <mxPoint x="180" y="400" as="sourcePoint" />
          </mxGeometry>
        </mxCell>
        <mxCell id="adUnemuhAB_1TELeL05T-162" style="edgeStyle=orthogonalEdgeStyle;rounded=0;orthogonalLoop=1;jettySize=auto;html=1;exitX=0.25;exitY=1;exitDx=0;exitDy=0;entryX=0.168;entryY=0.037;entryDx=0;entryDy=0;entryPerimeter=0;" parent="1" target="adUnemuhAB_1TELeL05T-102" edge="1">
          <mxGeometry relative="1" as="geometry">
            <mxPoint x="200" y="400" as="sourcePoint" />
            <Array as="points">
              <mxPoint x="200" y="420" />
              <mxPoint x="63" y="420" />
            </Array>
          </mxGeometry>
        </mxCell>
        <mxCell id="adUnemuhAB_1TELeL05T-145" value="mutex" style="ellipse;whiteSpace=wrap;html=1;aspect=fixed;fillColor=#fad9d5;strokeColor=#ae4132;" parent="1" vertex="1">
          <mxGeometry x="170" y="482.5" width="40" height="40" as="geometry" />
        </mxCell>
        <mxCell id="adUnemuhAB_1TELeL05T-152" value="cond.v&lt;br&gt;full" style="ellipse;whiteSpace=wrap;html=1;aspect=fixed;fillColor=#fad9d5;strokeColor=#ae4132;" parent="1" vertex="1">
          <mxGeometry x="50" y="482.5" width="40" height="40" as="geometry" />
        </mxCell>
        <mxCell id="adUnemuhAB_1TELeL05T-153" value="cond.v&lt;br&gt;empty" style="ellipse;whiteSpace=wrap;html=1;aspect=fixed;fillColor=#fad9d5;strokeColor=#ae4132;" parent="1" vertex="1">
          <mxGeometry x="100" y="482.5" width="40" height="40" as="geometry" />
        </mxCell>
        <mxCell id="adUnemuhAB_1TELeL05T-165" style="edgeStyle=orthogonalEdgeStyle;rounded=0;orthogonalLoop=1;jettySize=auto;html=1;exitX=1;exitY=0.5;exitDx=0;exitDy=0;" parent="1" source="adUnemuhAB_1TELeL05T-116" target="adUnemuhAB_1TELeL05T-131" edge="1">
          <mxGeometry relative="1" as="geometry" />
        </mxCell>
        <mxCell id="adUnemuhAB_1TELeL05T-176" style="edgeStyle=orthogonalEdgeStyle;rounded=0;orthogonalLoop=1;jettySize=auto;html=1;exitX=0;exitY=0;exitDx=0;exitDy=0;entryX=1;entryY=0.763;entryDx=0;entryDy=0;entryPerimeter=0;" parent="1" source="adUnemuhAB_1TELeL05T-173" target="adUnemuhAB_1TELeL05T-1" edge="1">
          <mxGeometry relative="1" as="geometry">
            <Array as="points">
              <mxPoint x="420" y="569" />
            </Array>
          </mxGeometry>
        </mxCell>
        <mxCell id="adUnemuhAB_1TELeL05T-173" value="" style="shape=parallelogram;perimeter=parallelogramPerimeter;whiteSpace=wrap;html=1;fixedSize=1;fillColor=#f5f5f5;fontColor=#333333;strokeColor=#666666;" parent="1" vertex="1">
          <mxGeometry x="500" y="560" width="120" height="60" as="geometry" />
        </mxCell>
        <mxCell id="adUnemuhAB_1TELeL05T-172" value="" style="shape=parallelogram;perimeter=parallelogramPerimeter;whiteSpace=wrap;html=1;fixedSize=1;fillColor=#f5f5f5;fontColor=#333333;strokeColor=#666666;" parent="1" vertex="1">
          <mxGeometry x="480" y="580" width="120" height="60" as="geometry" />
        </mxCell>
        <mxCell id="adUnemuhAB_1TELeL05T-174" value="config.txt" style="text;html=1;strokeColor=none;fillColor=none;align=center;verticalAlign=middle;whiteSpace=wrap;rounded=0;" parent="1" vertex="1">
          <mxGeometry x="535" y="555" width="80" height="30" as="geometry" />
        </mxCell>
        <mxCell id="adUnemuhAB_1TELeL05T-175" value="home_iot.log" style="text;html=1;strokeColor=none;fillColor=none;align=center;verticalAlign=middle;whiteSpace=wrap;rounded=0;" parent="1" vertex="1">
          <mxGeometry x="515" y="575" width="80" height="30" as="geometry" />
        </mxCell>
        <mxCell id="adUnemuhAB_1TELeL05T-178" value="" style="rounded=1;whiteSpace=wrap;html=1;" parent="1" vertex="1">
          <mxGeometry x="-230" width="180" height="420" as="geometry" />
        </mxCell>
        <mxCell id="adUnemuhAB_1TELeL05T-179" value="" style="rounded=0;whiteSpace=wrap;html=1;fillColor=#fff2cc;strokeColor=#d6b656;" parent="1" vertex="1">
          <mxGeometry x="-210" y="20" width="50" height="30" as="geometry" />
        </mxCell>
        <mxCell id="adUnemuhAB_1TELeL05T-180" value="Thread" style="text;html=1;strokeColor=none;fillColor=none;align=center;verticalAlign=middle;whiteSpace=wrap;rounded=0;fontStyle=1" parent="1" vertex="1">
          <mxGeometry x="-150" y="20" width="80" height="30" as="geometry" />
        </mxCell>
        <mxCell id="adUnemuhAB_1TELeL05T-182" value="" style="rounded=0;whiteSpace=wrap;html=1;fillColor=#b0e3e6;strokeColor=#000000;" parent="1" vertex="1">
          <mxGeometry x="-210" y="65" width="50" height="30" as="geometry" />
        </mxCell>
        <mxCell id="adUnemuhAB_1TELeL05T-183" value="" style="rounded=0;whiteSpace=wrap;html=1;fillColor=#b1ddf0;strokeColor=#000000;" parent="1" vertex="1">
          <mxGeometry x="-210" y="70" width="50" height="35" as="geometry" />
        </mxCell>
        <mxCell id="adUnemuhAB_1TELeL05T-184" value="" style="rounded=0;whiteSpace=wrap;html=1;fillColor=#bac8d3;strokeColor=#000000;" parent="1" vertex="1">
          <mxGeometry x="-210" y="75" width="50" height="30" as="geometry" />
        </mxCell>
        <mxCell id="adUnemuhAB_1TELeL05T-185" value="" style="verticalLabelPosition=bottom;verticalAlign=top;html=1;shape=mxgraph.basic.patternFillRect;fillStyle=hor;step=5;fillStrokeWidth=0.2;fillStrokeColor=#dddddd;" parent="1" vertex="1">
          <mxGeometry x="-210" y="80" width="50" height="30" as="geometry" />
        </mxCell>
        <mxCell id="adUnemuhAB_1TELeL05T-186" value="" style="verticalLabelPosition=bottom;verticalAlign=top;html=1;shape=mxgraph.basic.patternFillRect;fillStyle=diagGrid;step=5;fillStrokeWidth=0.2;fillStrokeColor=#dddddd;" parent="1" vertex="1">
          <mxGeometry x="-210" y="85" width="50" height="25" as="geometry" />
        </mxCell>
        <mxCell id="adUnemuhAB_1TELeL05T-187" value="Process" style="text;html=1;strokeColor=none;fillColor=none;align=center;verticalAlign=middle;whiteSpace=wrap;rounded=0;fontStyle=1" parent="1" vertex="1">
          <mxGeometry x="-150" y="72.5" width="80" height="30" as="geometry" />
        </mxCell>
        <mxCell id="adUnemuhAB_1TELeL05T-189" value="" style="shape=parallelogram;perimeter=parallelogramPerimeter;whiteSpace=wrap;html=1;fixedSize=1;fillColor=#f5f5f5;fontColor=#333333;strokeColor=#666666;" parent="1" vertex="1">
          <mxGeometry x="-217.5" y="175" width="60" height="20" as="geometry" />
        </mxCell>
        <mxCell id="adUnemuhAB_1TELeL05T-190" value="Document" style="text;html=1;strokeColor=none;fillColor=none;align=center;verticalAlign=middle;whiteSpace=wrap;rounded=0;fontStyle=1" parent="1" vertex="1">
          <mxGeometry x="-150" y="170" width="80" height="30" as="geometry" />
        </mxCell>
        <mxCell id="adUnemuhAB_1TELeL05T-191" value="" style="shape=flexArrow;endArrow=classic;html=1;rounded=0;exitX=0.476;exitY=0.999;exitDx=0;exitDy=0;fillColor=#E6D0DE;entryX=0.75;entryY=0;entryDx=0;entryDy=0;entryPerimeter=0;exitPerimeter=0;" parent="1" source="adUnemuhAB_1TELeL05T-1" target="adUnemuhAB_1TELeL05T-38" edge="1">
          <mxGeometry width="50" height="50" relative="1" as="geometry">
            <mxPoint x="219.66" y="650" as="sourcePoint" />
            <mxPoint x="170" y="680" as="targetPoint" />
            <Array as="points">
              <mxPoint x="210" y="680" />
            </Array>
          </mxGeometry>
        </mxCell>
        <mxCell id="adUnemuhAB_1TELeL05T-196" value="" style="shape=flexArrow;endArrow=classic;html=1;rounded=0;exitX=0.222;exitY=0.486;exitDx=0;exitDy=0;fillColor=#9AC7BF;exitPerimeter=0;" parent="1" edge="1">
          <mxGeometry width="50" height="50" relative="1" as="geometry">
            <mxPoint x="-200.00999999999996" y="220.00000000000014" as="sourcePoint" />
            <mxPoint x="-179.97" y="239.9" as="targetPoint" />
            <Array as="points">
              <mxPoint x="-189.97" y="229.9" />
            </Array>
          </mxGeometry>
        </mxCell>
        <mxCell id="adUnemuhAB_1TELeL05T-197" value="" style="shape=flexArrow;endArrow=classic;html=1;rounded=0;exitX=0.222;exitY=0.486;exitDx=0;exitDy=0;fillColor=#E6D0DE;exitPerimeter=0;" parent="1" edge="1">
          <mxGeometry width="50" height="50" relative="1" as="geometry">
            <mxPoint x="-194.99" y="260" as="sourcePoint" />
            <mxPoint x="-174.99" y="280" as="targetPoint" />
            <Array as="points">
              <mxPoint x="-184.99" y="270" />
            </Array>
          </mxGeometry>
        </mxCell>
        <mxCell id="adUnemuhAB_1TELeL05T-198" value="Named pipe" style="text;html=1;strokeColor=none;fillColor=none;align=center;verticalAlign=middle;whiteSpace=wrap;rounded=0;fontStyle=1" parent="1" vertex="1">
          <mxGeometry x="-150" y="210" width="80" height="30" as="geometry" />
        </mxCell>
        <mxCell id="adUnemuhAB_1TELeL05T-199" value="Unnamed pipe" style="text;html=1;strokeColor=none;fillColor=none;align=center;verticalAlign=middle;whiteSpace=wrap;rounded=0;fontStyle=1" parent="1" vertex="1">
          <mxGeometry x="-155" y="250" width="90" height="30" as="geometry" />
        </mxCell>
        <mxCell id="adUnemuhAB_1TELeL05T-200" value="Subtitle" style="text;html=1;strokeColor=none;fillColor=none;align=center;verticalAlign=middle;whiteSpace=wrap;rounded=0;fontStyle=1" parent="1" vertex="1">
          <mxGeometry x="-220" y="-30" width="70" height="30" as="geometry" />
        </mxCell>
        <mxCell id="adUnemuhAB_1TELeL05T-208" style="edgeStyle=orthogonalEdgeStyle;rounded=0;orthogonalLoop=1;jettySize=auto;html=1;exitX=0.5;exitY=1;exitDx=0;exitDy=0;" parent="1" source="adUnemuhAB_1TELeL05T-203" target="adUnemuhAB_1TELeL05T-3" edge="1">
          <mxGeometry relative="1" as="geometry" />
        </mxCell>
        <mxCell id="adUnemuhAB_1TELeL05T-203" value="" style="rounded=0;whiteSpace=wrap;html=1;" parent="1" vertex="1">
          <mxGeometry x="500" y="-22.5" width="200" height="112.5" as="geometry" />
        </mxCell>
        <mxCell id="adUnemuhAB_1TELeL05T-204" value="" style="rounded=0;whiteSpace=wrap;html=1;" parent="1" vertex="1">
          <mxGeometry x="-210" y="130" width="50" height="30" as="geometry" />
        </mxCell>
        <mxCell id="adUnemuhAB_1TELeL05T-205" value="Function" style="text;html=1;strokeColor=none;fillColor=none;align=center;verticalAlign=middle;whiteSpace=wrap;rounded=0;fontStyle=1" parent="1" vertex="1">
          <mxGeometry x="-150" y="130" width="80" height="30" as="geometry" />
        </mxCell>
        <mxCell id="adUnemuhAB_1TELeL05T-202" value="" style="sketch=0;pointerEvents=1;shadow=0;dashed=0;html=1;strokeColor=none;fillColor=#000000;labelPosition=center;verticalLabelPosition=bottom;verticalAlign=top;outlineConnect=0;align=center;shape=mxgraph.office.concepts.clock;" parent="1" vertex="1">
          <mxGeometry x="660" y="75" width="36" height="30" as="geometry" />
        </mxCell>
        <mxCell id="adUnemuhAB_1TELeL05T-206" value="" style="curved=1;endArrow=classic;html=1;rounded=0;" parent="1" target="adUnemuhAB_1TELeL05T-202" edge="1">
          <mxGeometry width="50" height="50" relative="1" as="geometry">
            <mxPoint x="686" y="105" as="sourcePoint" />
            <mxPoint x="736" y="55" as="targetPoint" />
            <Array as="points">
              <mxPoint x="716" y="105" />
              <mxPoint x="716" y="75" />
              <mxPoint x="696" y="65" />
            </Array>
          </mxGeometry>
        </mxCell>
        <mxCell id="adUnemuhAB_1TELeL05T-207" value="sensor_run" style="text;html=1;strokeColor=none;fillColor=none;align=center;verticalAlign=middle;whiteSpace=wrap;rounded=0;" parent="1" vertex="1">
          <mxGeometry x="560" y="18.75" width="80" height="30" as="geometry" />
        </mxCell>
        <mxCell id="adUnemuhAB_1TELeL05T-221" value="" style="shape=table;startSize=0;container=1;collapsible=0;childLayout=tableLayout;fontSize=16;" parent="1" vertex="1">
          <mxGeometry x="220" y="592" width="80" height="13" as="geometry" />
        </mxCell>
        <mxCell id="adUnemuhAB_1TELeL05T-222" value="" style="shape=tableRow;horizontal=0;startSize=0;swimlaneHead=0;swimlaneBody=0;strokeColor=inherit;top=0;left=0;bottom=0;right=0;collapsible=0;dropTarget=0;fillColor=none;points=[[0,0.5],[1,0.5]];portConstraint=eastwest;fontSize=16;" parent="adUnemuhAB_1TELeL05T-221" vertex="1">
          <mxGeometry width="80" height="13" as="geometry" />
        </mxCell>
        <mxCell id="adUnemuhAB_1TELeL05T-223" value="" style="shape=partialRectangle;html=1;whiteSpace=wrap;connectable=0;strokeColor=inherit;overflow=hidden;fillColor=none;top=0;left=0;bottom=0;right=0;pointerEvents=1;fontSize=16;" parent="adUnemuhAB_1TELeL05T-222" vertex="1">
          <mxGeometry width="26" height="13" as="geometry">
            <mxRectangle width="26" height="13" as="alternateBounds" />
          </mxGeometry>
        </mxCell>
        <mxCell id="adUnemuhAB_1TELeL05T-224" value="" style="shape=partialRectangle;html=1;whiteSpace=wrap;connectable=0;strokeColor=inherit;overflow=hidden;fillColor=none;top=0;left=0;bottom=0;right=0;pointerEvents=1;fontSize=16;" parent="adUnemuhAB_1TELeL05T-222" vertex="1">
          <mxGeometry x="26" width="28" height="13" as="geometry">
            <mxRectangle width="28" height="13" as="alternateBounds" />
          </mxGeometry>
        </mxCell>
        <mxCell id="adUnemuhAB_1TELeL05T-225" value="" style="shape=partialRectangle;html=1;whiteSpace=wrap;connectable=0;strokeColor=inherit;overflow=hidden;fillColor=none;top=0;left=0;bottom=0;right=0;pointerEvents=1;fontSize=16;" parent="adUnemuhAB_1TELeL05T-222" vertex="1">
          <mxGeometry x="54" width="26" height="13" as="geometry">
            <mxRectangle width="26" height="13" as="alternateBounds" />
          </mxGeometry>
        </mxCell>
        <mxCell id="adUnemuhAB_1TELeL05T-226" value="" style="shape=table;startSize=0;container=1;collapsible=0;childLayout=tableLayout;fontSize=16;" parent="1" vertex="1">
          <mxGeometry x="300" y="592" width="80" height="13" as="geometry" />
        </mxCell>
        <mxCell id="adUnemuhAB_1TELeL05T-227" value="" style="shape=tableRow;horizontal=0;startSize=0;swimlaneHead=0;swimlaneBody=0;strokeColor=inherit;top=0;left=0;bottom=0;right=0;collapsible=0;dropTarget=0;fillColor=none;points=[[0,0.5],[1,0.5]];portConstraint=eastwest;fontSize=16;" parent="adUnemuhAB_1TELeL05T-226" vertex="1">
          <mxGeometry width="80" height="13" as="geometry" />
        </mxCell>
        <mxCell id="adUnemuhAB_1TELeL05T-228" value="" style="shape=partialRectangle;html=1;whiteSpace=wrap;connectable=0;strokeColor=inherit;overflow=hidden;fillColor=none;top=0;left=0;bottom=0;right=0;pointerEvents=1;fontSize=16;" parent="adUnemuhAB_1TELeL05T-227" vertex="1">
          <mxGeometry width="26" height="13" as="geometry">
            <mxRectangle width="26" height="13" as="alternateBounds" />
          </mxGeometry>
        </mxCell>
        <mxCell id="adUnemuhAB_1TELeL05T-229" value="" style="shape=partialRectangle;html=1;whiteSpace=wrap;connectable=0;strokeColor=inherit;overflow=hidden;fillColor=none;top=0;left=0;bottom=0;right=0;pointerEvents=1;fontSize=16;" parent="adUnemuhAB_1TELeL05T-227" vertex="1">
          <mxGeometry x="26" width="28" height="13" as="geometry">
            <mxRectangle width="28" height="13" as="alternateBounds" />
          </mxGeometry>
        </mxCell>
        <mxCell id="adUnemuhAB_1TELeL05T-230" value="" style="shape=partialRectangle;html=1;whiteSpace=wrap;connectable=0;strokeColor=inherit;overflow=hidden;fillColor=none;top=0;left=0;bottom=0;right=0;pointerEvents=1;fontSize=16;" parent="adUnemuhAB_1TELeL05T-227" vertex="1">
          <mxGeometry x="54" width="26" height="13" as="geometry">
            <mxRectangle width="26" height="13" as="alternateBounds" />
          </mxGeometry>
        </mxCell>
        <mxCell id="adUnemuhAB_1TELeL05T-232" value="Worker queue SHM/Linked List" style="text;html=1;strokeColor=none;fillColor=none;align=center;verticalAlign=middle;whiteSpace=wrap;rounded=0;" parent="1" vertex="1">
          <mxGeometry x="257.5" y="565" width="122.5" height="20" as="geometry" />
        </mxCell>
        <mxCell id="adUnemuhAB_1TELeL05T-234" value="" style="ellipse;whiteSpace=wrap;html=1;aspect=fixed;fillColor=#fad9d5;strokeColor=#ae4132;" parent="1" vertex="1">
          <mxGeometry x="-202.5" y="330" width="25" height="25" as="geometry" />
        </mxCell>
        <mxCell id="adUnemuhAB_1TELeL05T-235" value="Synchronization" style="text;html=1;strokeColor=none;fillColor=none;align=center;verticalAlign=middle;whiteSpace=wrap;rounded=0;fontStyle=1" parent="1" vertex="1">
          <mxGeometry x="-155" y="325" width="90" height="30" as="geometry" />
        </mxCell>
        <mxCell id="adUnemuhAB_1TELeL05T-236" value="" style="shape=table;startSize=0;container=1;collapsible=0;childLayout=tableLayout;fontSize=16;" parent="1" vertex="1">
          <mxGeometry x="-210" y="297" width="40" height="13" as="geometry" />
        </mxCell>
        <mxCell id="adUnemuhAB_1TELeL05T-237" value="" style="shape=tableRow;horizontal=0;startSize=0;swimlaneHead=0;swimlaneBody=0;strokeColor=inherit;top=0;left=0;bottom=0;right=0;collapsible=0;dropTarget=0;fillColor=none;points=[[0,0.5],[1,0.5]];portConstraint=eastwest;fontSize=16;" parent="adUnemuhAB_1TELeL05T-236" vertex="1">
          <mxGeometry width="40" height="13" as="geometry" />
        </mxCell>
        <mxCell id="adUnemuhAB_1TELeL05T-238" value="" style="shape=partialRectangle;html=1;whiteSpace=wrap;connectable=0;strokeColor=inherit;overflow=hidden;fillColor=none;top=0;left=0;bottom=0;right=0;pointerEvents=1;fontSize=16;" parent="adUnemuhAB_1TELeL05T-237" vertex="1">
          <mxGeometry width="13" height="13" as="geometry">
            <mxRectangle width="13" height="13" as="alternateBounds" />
          </mxGeometry>
        </mxCell>
        <mxCell id="adUnemuhAB_1TELeL05T-239" value="" style="shape=partialRectangle;html=1;whiteSpace=wrap;connectable=0;strokeColor=inherit;overflow=hidden;fillColor=none;top=0;left=0;bottom=0;right=0;pointerEvents=1;fontSize=16;" parent="adUnemuhAB_1TELeL05T-237" vertex="1">
          <mxGeometry x="13" width="14" height="13" as="geometry">
            <mxRectangle width="14" height="13" as="alternateBounds" />
          </mxGeometry>
        </mxCell>
        <mxCell id="adUnemuhAB_1TELeL05T-240" value="" style="shape=partialRectangle;html=1;whiteSpace=wrap;connectable=0;strokeColor=inherit;overflow=hidden;fillColor=none;top=0;left=0;bottom=0;right=0;pointerEvents=1;fontSize=16;" parent="adUnemuhAB_1TELeL05T-237" vertex="1">
          <mxGeometry x="27" width="13" height="13" as="geometry">
            <mxRectangle width="13" height="13" as="alternateBounds" />
          </mxGeometry>
        </mxCell>
        <mxCell id="adUnemuhAB_1TELeL05T-241" value="Queue" style="text;html=1;strokeColor=none;fillColor=none;align=center;verticalAlign=middle;whiteSpace=wrap;rounded=0;fontStyle=1" parent="1" vertex="1">
          <mxGeometry x="-155" y="288.5" width="90" height="30" as="geometry" />
        </mxCell>
        <mxCell id="adUnemuhAB_1TELeL05T-250" style="edgeStyle=orthogonalEdgeStyle;rounded=0;orthogonalLoop=1;jettySize=auto;html=1;exitX=0;exitY=0.25;exitDx=0;exitDy=0;entryX=0;entryY=0.25;entryDx=0;entryDy=0;entryPerimeter=0;" parent="1" source="adUnemuhAB_1TELeL05T-245" target="adUnemuhAB_1TELeL05T-54" edge="1">
          <mxGeometry relative="1" as="geometry">
            <Array as="points">
              <mxPoint x="50" y="983" />
              <mxPoint x="30" y="983" />
            </Array>
          </mxGeometry>
        </mxCell>
        <mxCell id="adUnemuhAB_1TELeL05T-245" value="" style="rounded=0;whiteSpace=wrap;html=1;" parent="1" vertex="1">
          <mxGeometry x="50" y="961.25" width="200" height="112.5" as="geometry" />
        </mxCell>
        <mxCell id="adUnemuhAB_1TELeL05T-247" value="" style="curved=1;endArrow=classic;html=1;rounded=0;exitX=0.75;exitY=1;exitDx=0;exitDy=0;" parent="1" source="adUnemuhAB_1TELeL05T-245" edge="1">
          <mxGeometry width="50" height="50" relative="1" as="geometry">
            <mxPoint x="236" y="1088.75" as="sourcePoint" />
            <mxPoint x="238.80000000000018" y="1058.75" as="targetPoint" />
            <Array as="points">
              <mxPoint x="250" y="1089" />
              <mxPoint x="260" y="1060" />
              <mxPoint x="246" y="1048.75" />
            </Array>
          </mxGeometry>
        </mxCell>
        <mxCell id="adUnemuhAB_1TELeL05T-248" value="watcher_reader" style="text;html=1;strokeColor=none;fillColor=none;align=center;verticalAlign=middle;whiteSpace=wrap;rounded=0;" parent="1" vertex="1">
          <mxGeometry x="110" y="1000" width="80" height="30" as="geometry" />
        </mxCell>
        <mxCell id="adUnemuhAB_1TELeL05T-249" value="" style="endArrow=classic;startArrow=classic;html=1;rounded=0;entryX=1;entryY=0.5;entryDx=0;entryDy=0;entryPerimeter=0;exitX=1.002;exitY=0.571;exitDx=0;exitDy=0;exitPerimeter=0;" parent="1" source="adUnemuhAB_1TELeL05T-245" target="adUnemuhAB_1TELeL05T-54" edge="1">
          <mxGeometry width="50" height="50" relative="1" as="geometry">
            <mxPoint x="160" y="970" as="sourcePoint" />
            <mxPoint x="210" y="920" as="targetPoint" />
          </mxGeometry>
        </mxCell>
        <mxCell id="adUnemuhAB_1TELeL05T-251" value="broadcast" style="text;html=1;strokeColor=none;fillColor=none;align=center;verticalAlign=middle;whiteSpace=wrap;rounded=0;" parent="1" vertex="1">
          <mxGeometry x="-30" y="-50" width="80" height="30" as="geometry" />
        </mxCell>
        <mxCell id="adUnemuhAB_1TELeL05T-252" value="" style="rounded=0;whiteSpace=wrap;html=1;" parent="1" vertex="1">
          <mxGeometry x="75" y="750" width="125" height="80" as="geometry" />
        </mxCell>
        <mxCell id="adUnemuhAB_1TELeL05T-253" value="" style="rounded=0;whiteSpace=wrap;html=1;" parent="1" vertex="1">
          <mxGeometry x="85" y="760" width="125" height="80" as="geometry" />
        </mxCell>
        <mxCell id="adUnemuhAB_1TELeL05T-254" value="" style="rounded=0;whiteSpace=wrap;html=1;" parent="1" vertex="1">
          <mxGeometry x="95" y="770" width="125" height="80" as="geometry" />
        </mxCell>
        <mxCell id="adUnemuhAB_1TELeL05T-255" value="" style="rounded=0;whiteSpace=wrap;html=1;" parent="1" vertex="1">
          <mxGeometry x="105" y="780" width="125" height="80" as="geometry" />
        </mxCell>
        <mxCell id="adUnemuhAB_1TELeL05T-256" value="functions" style="text;html=1;strokeColor=none;fillColor=none;align=center;verticalAlign=middle;whiteSpace=wrap;rounded=0;" parent="1" vertex="1">
          <mxGeometry x="132.5" y="805" width="80" height="30" as="geometry" />
        </mxCell>
        <mxCell id="adUnemuhAB_1TELeL05T-302" value="" style="edgeStyle=elbowEdgeStyle;elbow=vertical;html=1;rounded=1;curved=0;sourcePerimeterSpacing=0;targetPerimeterSpacing=0;startSize=6;endSize=6;exitX=0.5;exitY=1;exitDx=0;exitDy=0;entryX=0.5;entryY=0;entryDx=0;entryDy=0;" parent="1" source="adUnemuhAB_1TELeL05T-303" target="adUnemuhAB_1TELeL05T-323" edge="1">
          <mxGeometry relative="1" as="geometry">
            <mxPoint x="612.5" y="910" as="sourcePoint" />
            <mxPoint x="670" y="997.5" as="targetPoint" />
          </mxGeometry>
        </mxCell>
        <mxCell id="adUnemuhAB_1TELeL05T-332" style="edgeStyle=orthogonalEdgeStyle;rounded=0;orthogonalLoop=1;jettySize=auto;html=1;exitX=0;exitY=0.25;exitDx=0;exitDy=0;entryX=0.5;entryY=0;entryDx=0;entryDy=0;" parent="1" source="adUnemuhAB_1TELeL05T-303" target="adUnemuhAB_1TELeL05T-316" edge="1">
          <mxGeometry relative="1" as="geometry" />
        </mxCell>
        <mxCell id="adUnemuhAB_1TELeL05T-303" value="SharedMemory" style="swimlane;fontStyle=0;childLayout=stackLayout;horizontal=1;startSize=26;fillColor=none;horizontalStack=0;resizeParent=1;resizeParentMax=0;resizeLast=0;collapsible=1;marginBottom=0;whiteSpace=wrap;html=1;" parent="1" vertex="1">
          <mxGeometry x="615" y="870" width="100" height="176" as="geometry">
            <mxRectangle x="620" y="860" width="120" height="30" as="alternateBounds" />
          </mxGeometry>
        </mxCell>
        <mxCell id="adUnemuhAB_1TELeL05T-304" value="pthread_mutex_t mutex" style="text;strokeColor=none;fillColor=none;align=left;verticalAlign=top;spacingLeft=4;spacingRight=4;overflow=hidden;rotatable=0;points=[[0,0.5],[1,0.5]];portConstraint=eastwest;whiteSpace=wrap;html=1;fontSize=8;" parent="adUnemuhAB_1TELeL05T-303" vertex="1">
          <mxGeometry y="26" width="100" height="14" as="geometry" />
        </mxCell>
        <mxCell id="T3J9ZxhJxqVu2YmQ8V2y-14" value="pthread_cond_t alert" style="text;strokeColor=none;fillColor=none;align=left;verticalAlign=top;spacingLeft=4;spacingRight=4;overflow=hidden;rotatable=0;points=[[0,0.5],[1,0.5]];portConstraint=eastwest;whiteSpace=wrap;html=1;fontSize=8;" vertex="1" parent="adUnemuhAB_1TELeL05T-303">
          <mxGeometry y="40" width="100" height="14" as="geometry" />
        </mxCell>
        <mxCell id="adUnemuhAB_1TELeL05T-310" value="SensorKeyInfo* Array" style="text;strokeColor=none;fillColor=none;align=left;verticalAlign=top;spacingLeft=4;spacingRight=4;overflow=hidden;rotatable=0;points=[[0,0.5],[1,0.5]];portConstraint=eastwest;whiteSpace=wrap;html=1;fontSize=8;" parent="adUnemuhAB_1TELeL05T-303" vertex="1">
          <mxGeometry y="54" width="100" height="14" as="geometry" />
        </mxCell>
        <mxCell id="T3J9ZxhJxqVu2YmQ8V2y-15" value="AlertKeyInfo* Array" style="text;strokeColor=none;fillColor=none;align=left;verticalAlign=top;spacingLeft=4;spacingRight=4;overflow=hidden;rotatable=0;points=[[0,0.5],[1,0.5]];portConstraint=eastwest;whiteSpace=wrap;html=1;fontSize=8;" vertex="1" parent="adUnemuhAB_1TELeL05T-303">
          <mxGeometry y="68" width="100" height="14" as="geometry" />
        </mxCell>
        <mxCell id="adUnemuhAB_1TELeL05T-312" value="Sensor* Array" style="text;strokeColor=none;fillColor=none;align=left;verticalAlign=top;spacingLeft=4;spacingRight=4;overflow=hidden;rotatable=0;points=[[0,0.5],[1,0.5]];portConstraint=eastwest;whiteSpace=wrap;html=1;fontSize=8;" parent="adUnemuhAB_1TELeL05T-303" vertex="1">
          <mxGeometry y="82" width="100" height="14" as="geometry" />
        </mxCell>
        <mxCell id="adUnemuhAB_1TELeL05T-313" value="int maxSensorKeyInfo" style="text;strokeColor=none;fillColor=none;align=left;verticalAlign=top;spacingLeft=4;spacingRight=4;overflow=hidden;rotatable=0;points=[[0,0.5],[1,0.5]];portConstraint=eastwest;whiteSpace=wrap;html=1;fontSize=8;" parent="adUnemuhAB_1TELeL05T-303" vertex="1">
          <mxGeometry y="96" width="100" height="14" as="geometry" />
        </mxCell>
        <mxCell id="adUnemuhAB_1TELeL05T-314" value="int maxAlertKeyInfo" style="text;strokeColor=none;fillColor=none;align=left;verticalAlign=top;spacingLeft=4;spacingRight=4;overflow=hidden;rotatable=0;points=[[0,0.5],[1,0.5]];portConstraint=eastwest;whiteSpace=wrap;html=1;fontSize=8;" parent="adUnemuhAB_1TELeL05T-303" vertex="1">
          <mxGeometry y="110" width="100" height="14" as="geometry" />
        </mxCell>
        <mxCell id="T3J9ZxhJxqVu2YmQ8V2y-16" value="int maxSensors" style="text;strokeColor=none;fillColor=none;align=left;verticalAlign=top;spacingLeft=4;spacingRight=4;overflow=hidden;rotatable=0;points=[[0,0.5],[1,0.5]];portConstraint=eastwest;whiteSpace=wrap;html=1;fontSize=8;" vertex="1" parent="adUnemuhAB_1TELeL05T-303">
          <mxGeometry y="124" width="100" height="14" as="geometry" />
        </mxCell>
        <mxCell id="T3J9ZxhJxqVu2YmQ8V2y-18" value="time_t flood_buffer[3]" style="text;strokeColor=none;fillColor=none;align=left;verticalAlign=top;spacingLeft=4;spacingRight=4;overflow=hidden;rotatable=0;points=[[0,0.5],[1,0.5]];portConstraint=eastwest;whiteSpace=wrap;html=1;fontSize=8;" vertex="1" parent="adUnemuhAB_1TELeL05T-303">
          <mxGeometry y="138" width="100" height="14" as="geometry" />
        </mxCell>
        <mxCell id="adUnemuhAB_1TELeL05T-315" value="int shmid" style="text;strokeColor=none;fillColor=none;align=left;verticalAlign=top;spacingLeft=4;spacingRight=4;overflow=hidden;rotatable=0;points=[[0,0.5],[1,0.5]];portConstraint=eastwest;whiteSpace=wrap;html=1;fontSize=8;" parent="adUnemuhAB_1TELeL05T-303" vertex="1">
          <mxGeometry y="152" width="100" height="24" as="geometry" />
        </mxCell>
        <mxCell id="adUnemuhAB_1TELeL05T-316" value="SensorKeyInfo" style="swimlane;fontStyle=0;childLayout=stackLayout;horizontal=1;startSize=25;fillColor=none;horizontalStack=0;resizeParent=1;resizeParentMax=0;resizeLast=0;collapsible=1;marginBottom=0;whiteSpace=wrap;html=1;" parent="1" vertex="1">
          <mxGeometry x="495" y="881.75" width="100" height="119" as="geometry" />
        </mxCell>
        <mxCell id="adUnemuhAB_1TELeL05T-317" value="char key[MAX_LEN]" style="text;strokeColor=none;fillColor=none;align=left;verticalAlign=top;spacingLeft=4;spacingRight=4;overflow=hidden;rotatable=0;points=[[0,0.5],[1,0.5]];portConstraint=eastwest;whiteSpace=wrap;html=1;fontSize=8;" parent="adUnemuhAB_1TELeL05T-316" vertex="1">
          <mxGeometry y="25" width="100" height="14" as="geometry" />
        </mxCell>
        <mxCell id="adUnemuhAB_1TELeL05T-318" value="int lastValue" style="text;strokeColor=none;fillColor=none;align=left;verticalAlign=top;spacingLeft=4;spacingRight=4;overflow=hidden;rotatable=0;points=[[0,0.5],[1,0.5]];portConstraint=eastwest;whiteSpace=wrap;html=1;fontSize=8;" parent="adUnemuhAB_1TELeL05T-316" vertex="1">
          <mxGeometry y="39" width="100" height="14" as="geometry" />
        </mxCell>
        <mxCell id="adUnemuhAB_1TELeL05T-319" value="int minValue" style="text;strokeColor=none;fillColor=none;align=left;verticalAlign=top;spacingLeft=4;spacingRight=4;overflow=hidden;rotatable=0;points=[[0,0.5],[1,0.5]];portConstraint=eastwest;whiteSpace=wrap;html=1;fontSize=8;" parent="adUnemuhAB_1TELeL05T-316" vertex="1">
          <mxGeometry y="53" width="100" height="14" as="geometry" />
        </mxCell>
        <mxCell id="adUnemuhAB_1TELeL05T-320" value="int maxValue" style="text;strokeColor=none;fillColor=none;align=left;verticalAlign=top;spacingLeft=4;spacingRight=4;overflow=hidden;rotatable=0;points=[[0,0.5],[1,0.5]];portConstraint=eastwest;whiteSpace=wrap;html=1;fontSize=8;" parent="adUnemuhAB_1TELeL05T-316" vertex="1">
          <mxGeometry y="67" width="100" height="14" as="geometry" />
        </mxCell>
        <mxCell id="adUnemuhAB_1TELeL05T-321" value="double averageValue" style="text;strokeColor=none;fillColor=none;align=left;verticalAlign=top;spacingLeft=4;spacingRight=4;overflow=hidden;rotatable=0;points=[[0,0.5],[1,0.5]];portConstraint=eastwest;whiteSpace=wrap;html=1;fontSize=8;" parent="adUnemuhAB_1TELeL05T-316" vertex="1">
          <mxGeometry y="81" width="100" height="14" as="geometry" />
        </mxCell>
        <mxCell id="adUnemuhAB_1TELeL05T-322" value="int updateCount" style="text;strokeColor=none;fillColor=none;align=left;verticalAlign=top;spacingLeft=4;spacingRight=4;overflow=hidden;rotatable=0;points=[[0,0.5],[1,0.5]];portConstraint=eastwest;whiteSpace=wrap;html=1;fontSize=8;" parent="adUnemuhAB_1TELeL05T-316" vertex="1">
          <mxGeometry y="95" width="100" height="24" as="geometry" />
        </mxCell>
        <mxCell id="adUnemuhAB_1TELeL05T-334" value="uses malloc" style="text;html=1;strokeColor=none;fillColor=none;align=center;verticalAlign=middle;whiteSpace=wrap;rounded=0;" parent="1" vertex="1">
          <mxGeometry x="555" y="735" width="105" height="15" as="geometry" />
        </mxCell>
        <mxCell id="omIfr3ZJ7B2NHzr-tZCr-1" value="Johnny Fernandes 2021190668&lt;br&gt;LEI UC 2022-23 &lt;br&gt;Sistemas Operativos" style="text;html=1;strokeColor=#314354;fillColor=#647687;align=center;verticalAlign=middle;whiteSpace=wrap;rounded=0;fontStyle=1;fontColor=#ffffff;" parent="1" vertex="1">
          <mxGeometry x="-235" y="441.75" width="190" height="76.5" as="geometry" />
        </mxCell>
        <mxCell id="omIfr3ZJ7B2NHzr-tZCr-5" style="edgeStyle=orthogonalEdgeStyle;rounded=0;orthogonalLoop=1;jettySize=auto;html=1;exitX=0.5;exitY=0;exitDx=0;exitDy=0;entryX=0.498;entryY=0.905;entryDx=0;entryDy=0;entryPerimeter=0;" parent="1" target="adUnemuhAB_1TELeL05T-222" edge="1">
          <mxGeometry relative="1" as="geometry">
            <mxPoint x="259.9999999999998" y="610" as="sourcePoint" />
          </mxGeometry>
        </mxCell>
        <mxCell id="adUnemuhAB_1TELeL05T-171" style="edgeStyle=orthogonalEdgeStyle;rounded=0;orthogonalLoop=1;jettySize=auto;html=1;exitX=0.5;exitY=0;exitDx=0;exitDy=0;entryX=0.75;entryY=1;entryDx=0;entryDy=0;" parent="1" source="adUnemuhAB_1TELeL05T-145" target="adUnemuhAB_1TELeL05T-115" edge="1">
          <mxGeometry relative="1" as="geometry" />
        </mxCell>
        <mxCell id="T3J9ZxhJxqVu2YmQ8V2y-4" value="mutex" style="ellipse;whiteSpace=wrap;html=1;aspect=fixed;fillColor=#fad9d5;strokeColor=#ae4132;" vertex="1" parent="1">
          <mxGeometry x="285" y="610" width="30" height="30" as="geometry" />
        </mxCell>
        <mxCell id="T3J9ZxhJxqVu2YmQ8V2y-3" style="edgeStyle=orthogonalEdgeStyle;rounded=0;orthogonalLoop=1;jettySize=auto;html=1;exitX=0.5;exitY=0;exitDx=0;exitDy=0;entryX=0.001;entryY=0.996;entryDx=0;entryDy=0;entryPerimeter=0;" edge="1" parent="1" target="adUnemuhAB_1TELeL05T-227">
          <mxGeometry relative="1" as="geometry">
            <mxPoint x="300.0000000000002" y="610" as="sourcePoint" />
          </mxGeometry>
        </mxCell>
        <mxCell id="T3J9ZxhJxqVu2YmQ8V2y-10" style="edgeStyle=orthogonalEdgeStyle;rounded=0;orthogonalLoop=1;jettySize=auto;html=1;exitX=1;exitY=0.5;exitDx=0;exitDy=0;" edge="1" parent="1" source="T3J9ZxhJxqVu2YmQ8V2y-6">
          <mxGeometry relative="1" as="geometry">
            <mxPoint x="490" y="859" as="targetPoint" />
          </mxGeometry>
        </mxCell>
        <mxCell id="T3J9ZxhJxqVu2YmQ8V2y-6" value="mutex" style="ellipse;whiteSpace=wrap;html=1;aspect=fixed;fillColor=#fad9d5;strokeColor=#ae4132;" vertex="1" parent="1">
          <mxGeometry x="360" y="840" width="40" height="40" as="geometry" />
        </mxCell>
        <mxCell id="T3J9ZxhJxqVu2YmQ8V2y-12" style="edgeStyle=orthogonalEdgeStyle;rounded=0;orthogonalLoop=1;jettySize=auto;html=1;exitX=0.5;exitY=1;exitDx=0;exitDy=0;entryX=1.008;entryY=0.372;entryDx=0;entryDy=0;entryPerimeter=0;" edge="1" parent="1" source="T3J9ZxhJxqVu2YmQ8V2y-7" target="adUnemuhAB_1TELeL05T-54">
          <mxGeometry relative="1" as="geometry" />
        </mxCell>
        <mxCell id="T3J9ZxhJxqVu2YmQ8V2y-7" value="cond.v&lt;br&gt;alert" style="ellipse;whiteSpace=wrap;html=1;aspect=fixed;fillColor=#fad9d5;strokeColor=#ae4132;" vertex="1" parent="1">
          <mxGeometry x="360" y="921.25" width="40" height="40" as="geometry" />
        </mxCell>
        <mxCell id="adUnemuhAB_1TELeL05T-323" value="AlertKeyInfo" style="swimlane;fontStyle=0;childLayout=stackLayout;horizontal=1;startSize=26;fillColor=none;horizontalStack=0;resizeParent=1;resizeParentMax=0;resizeLast=0;collapsible=1;marginBottom=0;whiteSpace=wrap;html=1;" parent="1" vertex="1">
          <mxGeometry x="583" y="1070" width="100" height="106" as="geometry" />
        </mxCell>
        <mxCell id="adUnemuhAB_1TELeL05T-324" value="int console_id" style="text;strokeColor=none;fillColor=none;align=left;verticalAlign=top;spacingLeft=4;spacingRight=4;overflow=hidden;rotatable=0;points=[[0,0.5],[1,0.5]];portConstraint=eastwest;whiteSpace=wrap;html=1;fontSize=8;" parent="adUnemuhAB_1TELeL05T-323" vertex="1">
          <mxGeometry y="26" width="100" height="14" as="geometry" />
        </mxCell>
        <mxCell id="T3J9ZxhJxqVu2YmQ8V2y-19" value="char id[MAX_LEN]" style="text;strokeColor=none;fillColor=none;align=left;verticalAlign=top;spacingLeft=4;spacingRight=4;overflow=hidden;rotatable=0;points=[[0,0.5],[1,0.5]];portConstraint=eastwest;whiteSpace=wrap;html=1;fontSize=8;" vertex="1" parent="adUnemuhAB_1TELeL05T-323">
          <mxGeometry y="40" width="100" height="14" as="geometry" />
        </mxCell>
        <mxCell id="T3J9ZxhJxqVu2YmQ8V2y-20" value="char key[MAX_LEN]" style="text;strokeColor=none;fillColor=none;align=left;verticalAlign=top;spacingLeft=4;spacingRight=4;overflow=hidden;rotatable=0;points=[[0,0.5],[1,0.5]];portConstraint=eastwest;whiteSpace=wrap;html=1;fontSize=8;" vertex="1" parent="adUnemuhAB_1TELeL05T-323">
          <mxGeometry y="54" width="100" height="14" as="geometry" />
        </mxCell>
        <mxCell id="adUnemuhAB_1TELeL05T-325" value="float min" style="text;strokeColor=none;fillColor=none;align=left;verticalAlign=top;spacingLeft=4;spacingRight=4;overflow=hidden;rotatable=0;points=[[0,0.5],[1,0.5]];portConstraint=eastwest;whiteSpace=wrap;html=1;fontSize=8;" parent="adUnemuhAB_1TELeL05T-323" vertex="1">
          <mxGeometry y="68" width="100" height="14" as="geometry" />
        </mxCell>
        <mxCell id="adUnemuhAB_1TELeL05T-329" value="float max" style="text;strokeColor=none;fillColor=none;align=left;verticalAlign=top;spacingLeft=4;spacingRight=4;overflow=hidden;rotatable=0;points=[[0,0.5],[1,0.5]];portConstraint=eastwest;whiteSpace=wrap;html=1;fontSize=8;" parent="adUnemuhAB_1TELeL05T-323" vertex="1">
          <mxGeometry y="82" width="100" height="24" as="geometry" />
        </mxCell>
        <mxCell id="T3J9ZxhJxqVu2YmQ8V2y-28" style="edgeStyle=orthogonalEdgeStyle;rounded=0;orthogonalLoop=1;jettySize=auto;html=1;exitX=0;exitY=0.5;exitDx=0;exitDy=0;entryX=1.007;entryY=0.106;entryDx=0;entryDy=0;entryPerimeter=0;" edge="1" parent="1" source="T3J9ZxhJxqVu2YmQ8V2y-18" target="T3J9ZxhJxqVu2YmQ8V2y-21">
          <mxGeometry relative="1" as="geometry" />
        </mxCell>
        <mxCell id="T3J9ZxhJxqVu2YmQ8V2y-31" style="edgeStyle=orthogonalEdgeStyle;rounded=0;orthogonalLoop=1;jettySize=auto;html=1;exitX=1;exitY=0.5;exitDx=0;exitDy=0;entryX=0;entryY=0.5;entryDx=0;entryDy=0;" edge="1" parent="1" source="T3J9ZxhJxqVu2YmQ8V2y-29" target="T3J9ZxhJxqVu2YmQ8V2y-30">
          <mxGeometry relative="1" as="geometry">
            <Array as="points">
              <mxPoint x="410" y="700" />
              <mxPoint x="430" y="700" />
              <mxPoint x="430" y="670" />
            </Array>
          </mxGeometry>
        </mxCell>
        <mxCell id="T3J9ZxhJxqVu2YmQ8V2y-32" style="edgeStyle=orthogonalEdgeStyle;rounded=0;orthogonalLoop=1;jettySize=auto;html=1;exitX=0.5;exitY=0;exitDx=0;exitDy=0;entryX=0.677;entryY=0.948;entryDx=0;entryDy=0;entryPerimeter=0;" edge="1" parent="1" source="T3J9ZxhJxqVu2YmQ8V2y-29" target="adUnemuhAB_1TELeL05T-227">
          <mxGeometry relative="1" as="geometry">
            <Array as="points">
              <mxPoint x="355" y="630" />
              <mxPoint x="354" y="630" />
            </Array>
          </mxGeometry>
        </mxCell>
        <mxCell id="T3J9ZxhJxqVu2YmQ8V2y-29" value="&lt;font style=&quot;font-size: 8px;&quot;&gt;pthread_mutex_t mutex pthread_cond_t cond WorkerAvailability* Array int nr_workers&lt;br&gt;int shmid&lt;br&gt;int front&lt;br&gt;int rear&lt;br&gt;int size&lt;/font&gt;" style="whiteSpace=wrap;html=1;align=left;" vertex="1" parent="1">
          <mxGeometry x="300" y="660" width="110" height="120" as="geometry" />
        </mxCell>
        <mxCell id="T3J9ZxhJxqVu2YmQ8V2y-34" value="&lt;font style=&quot;font-size: 10px;&quot;&gt;[No active listening, waits cond alert]&lt;/font&gt;" style="text;html=1;strokeColor=none;fillColor=none;align=center;verticalAlign=middle;whiteSpace=wrap;rounded=0;" vertex="1" parent="1">
          <mxGeometry x="58.75" y="1020" width="182.5" height="30" as="geometry" />
        </mxCell>
        <mxCell id="T3J9ZxhJxqVu2YmQ8V2y-35" value="&lt;font style=&quot;font-size: 10px;&quot;&gt;[Active sending on scheduled time]&lt;/font&gt;" style="text;html=1;strokeColor=none;fillColor=none;align=center;verticalAlign=middle;whiteSpace=wrap;rounded=0;" vertex="1" parent="1">
          <mxGeometry x="515" y="40" width="170" height="30" as="geometry" />
        </mxCell>
      </root>
    </mxGraphModel>
  </diagram>
</mxfile>
